<?xml version="1.0" standalone="no"?>
<!DOCTYPE svg PUBLIC "-//W3C//DTD SVG 20010904//EN"
 "http://www.w3.org/TR/2001/REC-SVG-20010904/DTD/svg10.dtd">
<svg version="1.0" xmlns="http://www.w3.org/2000/svg"
 width="512.000000pt" height="512.000000pt" viewBox="0 0 512.000000 512.000000"
 preserveAspectRatio="xMidYMid meet">

<g transform="translate(0.000000,512.000000) scale(0.100000,-0.100000)"
fill="#ff0000" stroke="none">
<path d="M3320 3311 c-141 -113 -391 -385 -534 -579 -218 -298 -419 -561 -471
-617 -51 -56 -54 -57 -41 -25 19 46 51 103 162 291 195 329 384 753 384 862 0
45 -20 77 -49 77 -73 0 -266 -133 -426 -294 -50 -50 -147 -160 -215 -244 -69
-85 -136 -166 -149 -180 -32 -36 40 97 136 251 72 117 174 297 185 328 4 9 -2
29 -12 44 -11 16 -22 46 -25 66 -8 44 -26 63 -53 54 -11 -3 -85 -92 -165 -198
-216 -287 -321 -454 -444 -706 -65 -135 -163 -404 -163 -451 0 -39 36 -125 54
-128 29 -6 61 24 203 185 76 87 205 227 286 311 82 85 226 247 320 360 163
197 297 348 297 335 0 -3 -22 -36 -49 -72 -117 -157 -255 -415 -314 -586 -71
-206 -79 -287 -37 -382 17 -39 22 -43 53 -43 94 0 343 234 512 480 79 115 137
191 142 187 2 -3 -5 -26 -15 -53 -61 -153 -66 -314 -16 -439 38 -98 49 -112
101 -131 91 -35 225 17 339 130 45 46 82 94 102 135 34 69 37 86 22 125 -14
38 -35 24 -82 -58 -77 -133 -215 -241 -323 -254 -55 -6 -95 16 -95 53 0 58
122 324 268 582 185 327 272 523 257 581 -9 36 -33 72 -48 72 -7 0 -50 -31
-97 -69z"/>
</g>
</svg>

